<?xml version="1.0" encoding="UTF-8" standalone="no"?><!DOCTYPE svg PUBLIC "-//W3C//DTD SVG 1.1//EN" "http://www.w3.org/Graphics/SVG/1.1/DTD/svg11.dtd"><!-- Generated by graphviz version 2.40.1 (20161225.0304)
 --><!-- Title: G Pages: 1 --><svg xmlns="http://www.w3.org/2000/svg" xmlns:xlink="http://www.w3.org/1999/xlink" width="568pt" height="188pt" viewBox="0.00 0.00 567.96 188.00">
<g id="graph0" class="graph" transform="scale(1 1) rotate(0) translate(4 184)">
<title>G</title>
<polygon fill="#ffffff" stroke="transparent" points="-4,4 -4,-184 563.9561,-184 563.9561,4 -4,4"/>
<!-- A -->
<g id="node1" class="node">
<title>A</title>
<ellipse fill="none" stroke="#000000" cx="305.478" cy="-162" rx="42.2971" ry="18"/>
<text text-anchor="middle" x="305.478" y="-157.8" font-family="Times,serif" font-size="14.00" fill="#000000">window</text>
</g>
<!-- B -->
<g id="node2" class="node">
<title>B</title>
<ellipse fill="none" stroke="#000000" cx="148.478" cy="-90" rx="43.4561" ry="18"/>
<text text-anchor="middle" x="148.478" y="-85.8" font-family="Times,serif" font-size="14.00" fill="#000000">iframe 1</text>
</g>
<!-- A&#45;&#45;B -->
<g id="edge1" class="edge">
<title>A--B</title>
<path fill="none" stroke="#000000" d="M276.6818,-148.7941C248.531,-135.8842 205.8932,-116.3305 177.6234,-103.366"/>
</g>
<!-- C -->
<g id="node3" class="node">
<title>C</title>
<ellipse fill="none" stroke="#000000" cx="253.478" cy="-90" rx="43.4561" ry="18"/>
<text text-anchor="middle" x="253.478" y="-85.8" font-family="Times,serif" font-size="14.00" fill="#000000">iframe 4</text>
</g>
<!-- A&#45;&#45;C -->
<g id="edge2" class="edge">
<title>A--C</title>
<path fill="none" stroke="#000000" d="M292.8903,-144.5708C284.7146,-133.2506 274.1024,-118.5568 265.9499,-107.2687"/>
</g>
<!-- D -->
<g id="node4" class="node">
<title>D</title>
<ellipse fill="none" stroke="#000000" cx="358.478" cy="-90" rx="43.4561" ry="18"/>
<text text-anchor="middle" x="358.478" y="-85.8" font-family="Times,serif" font-size="14.00" fill="#000000">iframe 6</text>
</g>
<!-- A&#45;&#45;D -->
<g id="edge3" class="edge">
<title>A--D</title>
<path fill="none" stroke="#000000" d="M318.3079,-144.5708C326.6408,-133.2506 337.4571,-118.5568 345.7664,-107.2687"/>
</g>
<!-- E -->
<g id="node5" class="node">
<title>E</title>
<ellipse fill="none" stroke="#000000" cx="463.478" cy="-90" rx="43.4561" ry="18"/>
<text text-anchor="middle" x="463.478" y="-85.8" font-family="Times,serif" font-size="14.00" fill="#000000">iframe 7</text>
</g>
<!-- A&#45;&#45;E -->
<g id="edge4" class="edge">
<title>A--E</title>
<path fill="none" stroke="#000000" d="M334.4577,-148.7941C362.7878,-135.8842 405.6972,-116.3305 434.1471,-103.366"/>
</g>
<!-- F -->
<g id="node6" class="node">
<title>F</title>
<ellipse fill="none" stroke="#000000" cx="43.478" cy="-18" rx="43.4561" ry="18"/>
<text text-anchor="middle" x="43.478" y="-13.8" font-family="Times,serif" font-size="14.00" fill="#000000">iframe 2</text>
</g>
<!-- B&#45;&#45;F -->
<g id="edge5" class="edge">
<title>B--F</title>
<path fill="none" stroke="#000000" d="M125.9529,-74.5542C108.2369,-62.406 83.6724,-45.5618 65.9659,-33.4203"/>
</g>
<!-- G -->
<g id="node7" class="node">
<title>G</title>
<ellipse fill="none" stroke="#000000" cx="148.478" cy="-18" rx="43.4561" ry="18"/>
<text text-anchor="middle" x="148.478" y="-13.8" font-family="Times,serif" font-size="14.00" fill="#000000">iframe 3</text>
</g>
<!-- B&#45;&#45;G -->
<g id="edge6" class="edge">
<title>B--G</title>
<path fill="none" stroke="#000000" d="M148.478,-71.8314C148.478,-61 148.478,-47.2876 148.478,-36.4133"/>
</g>
<!-- H -->
<g id="node8" class="node">
<title>H</title>
<ellipse fill="none" stroke="#000000" cx="253.478" cy="-18" rx="43.4561" ry="18"/>
<text text-anchor="middle" x="253.478" y="-13.8" font-family="Times,serif" font-size="14.00" fill="#000000">iframe 5</text>
</g>
<!-- C&#45;&#45;H -->
<g id="edge7" class="edge">
<title>C--H</title>
<path fill="none" stroke="#000000" d="M253.478,-71.8314C253.478,-61 253.478,-47.2876 253.478,-36.4133"/>
</g>
<!-- I -->
<g id="node9" class="node">
<title>I</title>
<ellipse fill="none" stroke="#000000" cx="411.478" cy="-18" rx="43.4561" ry="18"/>
<text text-anchor="middle" x="411.478" y="-13.8" font-family="Times,serif" font-size="14.00" fill="#000000">iframe 8</text>
</g>
<!-- E&#45;&#45;I -->
<g id="edge8" class="edge">
<title>E--I</title>
<path fill="none" stroke="#000000" d="M450.8903,-72.5708C442.7146,-61.2506 432.1024,-46.5568 423.9499,-35.2687"/>
</g>
<!-- J -->
<g id="node10" class="node">
<title>J</title>
<ellipse fill="none" stroke="#000000" cx="516.478" cy="-18" rx="43.4561" ry="18"/>
<text text-anchor="middle" x="516.478" y="-13.8" font-family="Times,serif" font-size="14.00" fill="#000000">iframe 9</text>
</g>
<!-- E&#45;&#45;J -->
<g id="edge9" class="edge">
<title>E--J</title>
<path fill="none" stroke="#000000" d="M476.3079,-72.5708C484.6408,-61.2506 495.4571,-46.5568 503.7664,-35.2687"/>
</g>
</g>
</svg>